<svg xmlns="http://www.w3.org/2000/svg" width="251" height="33" viewBox="0 0 251 33">
  <g id="sistemaDEV" transform="translate(-67 -169)">
    <rect id="Retângulo_2072" data-name="Retângulo 2072" width="251" height="33" rx="16.5" transform="translate(67 169)" fill="#5d990f"/>
    <text id="teste" transform="translate(115 190)" fill="#fff" font-size="13" font-family="Ubuntu-Bold, Ubuntu" font-weight="700"><tspan x="0" y="0">Ambiente de desenvolvimento</tspan></text>
    <g id="noun_creativity_1317842" transform="translate(79.685 172.685)">
      <g id="_16-Creativity" data-name="16-Creativity">
        <path id="Caminho_12330" data-name="Caminho 12330" d="M23.363,9H18.986v1.026h4.377a.241.241,0,0,1,.241.241V23.127a.241.241,0,0,1-.241.241H1.267a.241.241,0,0,1-.241-.241v-1.3H18.473V20.8H1.026V10.267a.241.241,0,0,1,.241-.241H5.645V9H1.267A1.273,1.273,0,0,0,0,10.267V23.127a1.273,1.273,0,0,0,1.267,1.267H7.184v1.539h-1.3A1.273,1.273,0,0,0,4.618,26.96h0v1.026H4.105v1.026H20.526V27.986h-.513V26.96h0a1.273,1.273,0,0,0-1.247-1.026H17.447V24.394h5.917a1.273,1.273,0,0,0,1.267-1.267V10.267A1.273,1.273,0,0,0,23.363,9ZM8.21,24.394h8.21v1.539H8.21ZM18.745,26.96a.241.241,0,0,1,.241.241v.785H5.645V27.2a.241.241,0,0,1,.241-.241Z" transform="translate(0 -4.382)" fill="#fff"/>
        <path id="Caminho_12331" data-name="Caminho 12331" d="M16.052,9.237h0v1.539h-.513V11.8h.513v.677a1.365,1.365,0,0,0,1.355,1.375h1.211v1.026h1.026V13.855h1.211A1.365,1.365,0,0,0,22.21,12.48V11.8h.513V10.776H22.21V9.237h0a5.131,5.131,0,1,0-6.158,0Zm5.131,3.243a.339.339,0,0,1-.328.349H17.407a.339.339,0,0,1-.328-.349V11.8h4.105Zm0-1.7H17.079V9.832a5.1,5.1,0,0,0,4.105,0Zm-2.053-9.75A4.105,4.105,0,0,1,19.644,9.2V5.645h.513a.513.513,0,0,0,.513-.513V4.105H19.644v.513H18.618V4.105H17.592V5.131a.513.513,0,0,0,.513.513h.513V9.2a4.105,4.105,0,0,1,.513-8.174Z" transform="translate(-6.816)" fill="#fff"/>
        <rect id="Retângulo_2073" data-name="Retângulo 2073" width="1" height="1" transform="translate(2.315 14.315)" fill="#fff"/>
        <rect id="Retângulo_2074" data-name="Retângulo 2074" width="1" height="1" transform="translate(2.315 12.315)" fill="#fff"/>
        <rect id="Retângulo_2075" data-name="Retângulo 2075" width="1" height="1" transform="translate(4.315 14.315)" fill="#fff"/>
        <rect id="Retângulo_2076" data-name="Retângulo 2076" width="1" height="1" transform="translate(21.315 6.315)" fill="#fff"/>
        <rect id="Retângulo_2077" data-name="Retângulo 2077" width="1" height="1" transform="translate(21.315 8.315)" fill="#fff"/>
        <rect id="Retângulo_2078" data-name="Retângulo 2078" width="1" height="1" transform="translate(19.315 6.315)" fill="#fff"/>
        <rect id="Retângulo_2079" data-name="Retângulo 2079" width="1" height="1" transform="translate(21.315 16.315)" fill="#fff"/>
        <rect id="Retângulo_2080" data-name="Retângulo 2080" width="1" height="1" transform="translate(19.315 16.315)" fill="#fff"/>
      </g>
    </g>
  </g>
</svg>
