<svg xmlns="http://www.w3.org/2000/svg" width="219" height="33" viewBox="0 0 219 33">
  <g id="sistemaHOM" transform="translate(-67 -169)">
    <rect id="Retângulo_2072" data-name="Retângulo 2072" width="219" height="33" rx="16.5" transform="translate(67 169)" fill="#f55047"/>
    <text id="teste" transform="translate(115 190)" fill="#fff" font-size="13" font-family="Ubuntu-Bold, Ubuntu" font-weight="700"><tspan x="0" y="0">Sistema em homologação</tspan></text>
    <g id="noun_test_1221430" transform="translate(67.045 166.655)">
      <g id="Grupo_1652" data-name="Grupo 1652" transform="translate(15.188 6)">
        <path id="Caminho_12332" data-name="Caminho 12332" d="M24.955,958.362a.545.545,0,0,0-.272.07l-1.2.666h-.009l-1.078.6H18.379a3.126,3.126,0,0,0-3.192,3.034v17.291a3.128,3.128,0,0,0,3.192,3.034H31.532a3.128,3.128,0,0,0,3.192-3.034V962.729a3.126,3.126,0,0,0-3.192-3.034H27.516l-1.087-.6-1.2-.667a.577.577,0,0,0-.272-.07Zm-6.576,2.455H22.4l1.078.6,1.21.666a.561.561,0,0,0,.544,0l1.2-.666,1.087-.6h4.016a2,2,0,0,1,2.069,1.911v17.291a2,2,0,0,1-2.069,1.912H18.379a2,2,0,0,1-2.069-1.912V962.729A2,2,0,0,1,18.379,960.817Z" transform="translate(-15.188 -958.362)" fill="#fff" fill-rule="evenodd"/>
        <path id="Caminho_12333" data-name="Caminho 12333" d="M27.744,979.512a.561.561,0,1,0,0,1.122h7.635a.561.561,0,1,0,0-1.122Z" transform="translate(-23.811 -973.577)" fill="#fff" fill-rule="evenodd"/>
        <path id="Caminho_12334" data-name="Caminho 12334" d="M27.744,992.532a.561.561,0,1,0,0,1.122h7.635a.561.561,0,0,0,.217-1.082.565.565,0,0,0-.217-.04Z" transform="translate(-23.811 -982.944)" fill="#fff" fill-rule="evenodd"/>
        <path id="Caminho_12335" data-name="Caminho 12335" d="M27.744,1005.56a.587.587,0,0,0-.217.04.559.559,0,0,0-.185.121.561.561,0,0,0,.185.92.559.559,0,0,0,.217.04h7.635a.579.579,0,0,0,.217-.04.561.561,0,0,0-.217-1.082Z" transform="translate(-23.811 -992.317)" fill="#fff" fill-rule="evenodd"/>
        <path id="Caminho_12336" data-name="Caminho 12336" d="M27.744,1018.58a.587.587,0,0,0-.217.04.561.561,0,0,0,0,1.042.568.568,0,0,0,.217.04h7.635a.582.582,0,0,0,.217-.04.561.561,0,0,0-.217-1.082Z" transform="translate(-23.811 -1001.684)" fill="#fff" fill-rule="evenodd"/>
        <path id="Caminho_12337" data-name="Caminho 12337" d="M27.744,1031.6a.587.587,0,0,0-.217.04.561.561,0,0,0,.217,1.082h7.635a.582.582,0,0,0,.217-.04.561.561,0,0,0,.352-.521.561.561,0,0,0-.569-.561Z" transform="translate(-23.811 -1011.05)" fill="#fff" fill-rule="evenodd"/>
        <path id="Caminho_12338" data-name="Caminho 12338" d="M64.115,976.59a.561.561,0,0,0-.391.157l-.411.386-.411-.386a.561.561,0,1,0-.768.818l.359.337-.359.337a.561.561,0,1,0,.768.818l.411-.386.411.386a.561.561,0,1,0,.768-.818l-.359-.337.359-.337a.561.561,0,0,0-.377-.976Z" transform="translate(-48.828 -971.475)" fill="#fff" fill-rule="evenodd"/>
        <path id="Caminho_12339" data-name="Caminho 12339" d="M64.115,1029.227a.563.563,0,0,0-.391.157l-.411.386-.411-.386a.561.561,0,0,0-.4-.158.584.584,0,0,0-.216.049.561.561,0,0,0-.148.928l.359.337-.359.337a.561.561,0,0,0,.364.977.542.542,0,0,0,.218-.038.562.562,0,0,0,.186-.12l.411-.386.411.386a.561.561,0,0,0,.4.158.579.579,0,0,0,.216-.049.561.561,0,0,0,.148-.928l-.359-.337.359-.337a.561.561,0,0,0-.377-.976Z" transform="translate(-48.828 -1009.343)" fill="#fff" fill-rule="evenodd"/>
        <path id="Caminho_12340" data-name="Caminho 12340" d="M64.115,1003.547a.561.561,0,0,0-.391.157l-.411.386-.411-.386a.562.562,0,0,0-.4-.158.586.586,0,0,0-.216.049.561.561,0,0,0-.148.928l.359.337-.359.337a.561.561,0,0,0,.364.977.544.544,0,0,0,.218-.039.558.558,0,0,0,.186-.12l.411-.386.411.386a.562.562,0,0,0,.4.158.579.579,0,0,0,.216-.049.561.561,0,0,0,.148-.928l-.359-.337.359-.337a.561.561,0,0,0-.377-.976Z" transform="translate(-48.828 -990.868)" fill="#fff" fill-rule="evenodd"/>
        <path id="Caminho_12341" data-name="Caminho 12341" d="M65.009,988.878a.561.561,0,0,0-.5.273l-.56.908a.561.561,0,0,0-.967.522l.272.954a.561.561,0,0,0,1.017.14l1.192-1.936a.561.561,0,0,0-.453-.862Z" transform="translate(-49.554 -980.316)" fill="#fff" fill-rule="evenodd"/>
        <path id="Caminho_12342" data-name="Caminho 12342" d="M65.009,1015.289a.561.561,0,0,0-.5.274l-.56.91a.561.561,0,0,0-.966.522l.272.954a.561.561,0,0,0,1.018.14l1.192-1.939a.561.561,0,0,0-.453-.862Z" transform="translate(-49.554 -999.316)" fill="#fff" fill-rule="evenodd"/>
      </g>
    </g>
  </g>
</svg>
