<svg xmlns="http://www.w3.org/2000/svg" xmlns:xlink="http://www.w3.org/1999/xlink" width="222.793" height="155.459" viewBox="0 0 222.793 155.459"><defs><style>.a{fill:#ffd5d5;}.b{fill:#8f8f8f;}.c{fill:#f0f0f0;}.d{fill:#fff;}.e{fill:url(#a);}.f{fill:#ccc;}.g{fill:#f5f7ff;}.h{fill:#e6e6e6;}.i{fill:#c3d90d;}.j{fill:#f3f3f3;}.k{fill:url(#b);}.l{fill:url(#c);}.m{fill:url(#d);}.n{fill:url(#e);}.o{fill:#f9cd99;}.p{fill:url(#f);}.q{fill:#eea886;}.r{fill:#112230;}.s{fill:#f0c141;}.t{fill:#152b3d;}.u{fill:#3a3f47;}.v{fill:#1d3b54;}.w{fill:#d6d6d6;}.x{fill:#2f5b7c;}.y{fill:url(#g);}.z{fill:#8f9ecc;}.aa{fill:#1a598c;}.ab{fill:#2273b5;}.ac{fill:#ebebf2;}.ad{fill:#3b3b40;}.ae{fill:#08309c;}.af{fill:#434343;}.ag{fill:#d1c0ba;}.ah{fill:#143aa1;}.ai{fill:#eea987;}.aj{fill:#a87860;}.ak{fill:#162d40;}.al{fill:#0e1e2b;}.am{fill:#eddad3;}.an{fill:#db9c7c;}.ao{fill:#fccca2;}.ap{fill:#353a3d;}.aq{fill:#81807e;}.ar{fill:#2d3133;}.as{fill:#decbc4;}.at{fill:#495055;}.au{fill:#8d634e;}.av{fill:rgba(51,51,51,0.3);}.aw{fill:#3c4145;}.ax{fill:#51565c;}.ay{fill:#f5e2d9;}.az{fill:#323657;}.ba{fill:#ad9f99;}.bb{fill:#69737a;}.bc{fill:#d9c9c2;}</style><linearGradient id="a" y1="0.5" x2="1" y2="0.5" gradientUnits="objectBoundingBox"><stop offset="0" stop-color="#004784"/><stop offset="1" stop-color="#ebebf2"/></linearGradient><linearGradient id="b" y1="0.5" x2="1" y2="0.5" gradientUnits="objectBoundingBox"><stop offset="0" stop-color="#5d990f"/><stop offset="1" stop-color="#c3d90d"/></linearGradient><linearGradient id="c" x1="0" y1="0.5" x2="1" y2="0.5" xlink:href="#b"/><linearGradient id="d" x1="0" y1="0.5" x2="1" y2="0.5" xlink:href="#b"/><linearGradient id="e" x1="0" y1="0.5" x2="1" y2="0.5" xlink:href="#b"/><linearGradient id="f" y1="0.5" x2="1" y2="0.5" gradientUnits="objectBoundingBox"><stop offset="0" stop-color="#f08e81"/><stop offset="1" stop-color="#ffeddf"/></linearGradient><linearGradient id="g" x1="0.5" y1="0.155" x2="0.5" y2="1.195" gradientUnits="objectBoundingBox"><stop offset="0" stop-color="#d3dae0"/><stop offset="1" stop-color="#fff"/></linearGradient></defs><g transform="translate(-256.3 -497.37)"><g transform="translate(256.3 497.37)"><g transform="translate(25.956 42.517)"><g transform="translate(0.279 2.944)"><path class="a" d="M526.355,895.032a28.49,28.49,0,0,1-14.465-4.309c-3.389-2.253-7.783-3.042-10.873-3.307a36.271,36.271,0,0,0-5.956-.035l-.021-.213a36.518,36.518,0,0,1,6,.034c3.115.267,7.547,1.064,10.973,3.342a28.292,28.292,0,0,0,14.343,4.272Z" transform="translate(-495.04 -887.064)"/></g><path class="a" d="M526.549,872.453C524.291,875,514.7,876.581,509,873.6a52.157,52.157,0,0,1-7.845-5.263c-2.87-2.211-5.349-4.12-8.39-4.805l-.266-.06.236-.137a27.424,27.424,0,0,1,10.86-3,26.2,26.2,0,0,1,10.859,1.546,31.7,31.7,0,0,1,12.059,8.277l-.078.074.078-.074a1.517,1.517,0,0,1,.162,2.139C526.636,872.351,526.594,872.4,526.549,872.453Zm-33.462-9.06c2.962.746,5.4,2.62,8.2,4.779a52.015,52.015,0,0,0,7.814,5.243,18.358,18.358,0,0,0,10.138,1.451c3.278-.357,6.105-1.375,7.152-2.556.041-.046.079-.092.114-.138a1.309,1.309,0,0,0-.146-1.864c-8.247-8.766-16.917-10.144-22.739-9.756A27.7,27.7,0,0,0,493.087,863.393Z" transform="translate(-492.5 -860.277)"/><g transform="translate(8.061 0.464)"><rect class="a" width="0.214" height="3.957" transform="matrix(0.827, -0.562, 0.562, 0.827, 0, 0.12)"/></g><g transform="translate(8.98 4.451)"><rect class="a" width="5.454" height="0.214" transform="matrix(0.735, -0.678, 0.678, 0.735, 0, 3.699)"/></g><g transform="translate(16.626 0.374)"><rect class="a" width="0.214" height="6.145" transform="matrix(0.997, -0.075, 0.075, 0.997, 0, 0.016)"/></g></g><g transform="translate(24.903 12.759)"><g transform="translate(0.078 0.461)"><path class="a" d="M515.156,625.068a28.3,28.3,0,0,1-5.878-3.177,33.724,33.724,0,0,1-10.417-11.435,47.82,47.82,0,0,0-10.25-13.082,24.335,24.335,0,0,0-4.98-3.507l.087-.187a24.554,24.554,0,0,1,5.021,3.531,47.986,47.986,0,0,1,10.3,13.145,33.543,33.543,0,0,0,10.354,11.365,28.091,28.091,0,0,0,5.83,3.153Z" transform="translate(-483.63 -593.68)"/></g><path class="a" d="M522.375,620.813l-.58.107a27.391,27.391,0,0,1-4.847.292,34.989,34.989,0,0,1-11.308-2.087,31.671,31.671,0,0,1-12.948-8.909c-4.479-5.085-7.759-11.865-9.75-20.155l-.022-.093.091-.029a16.043,16.043,0,0,1,7.789.019,18.5,18.5,0,0,1,7.214,3.581,28.125,28.125,0,0,1,7.188,9.105c4.537,8.672,8.816,13.126,11.606,15.336a12.7,12.7,0,0,0,4.986,2.734Zm-39.21-30.7c4.5,18.615,14.737,25.947,22.538,28.819a34.794,34.794,0,0,0,11.239,2.077,30.078,30.078,0,0,0,4.322-.215,14.913,14.913,0,0,1-4.585-2.647c-2.805-2.222-7.106-6.7-11.66-15.4-4.529-8.654-10.258-11.619-14.268-12.582A16.064,16.064,0,0,0,483.165,590.11Z" transform="translate(-482.92 -589.482)"/><g transform="translate(8.519 18.975)"><rect class="a" width="0.205" height="8.235" transform="matrix(0.044, -0.999, 0.999, 0.044, 0, 0.205)"/></g><g transform="translate(14.028 3.463)"><rect class="a" width="0.205" height="11.555" transform="translate(0 0) rotate(-0.061)"/></g><g transform="translate(2.193 7.355)"><rect class="a" width="0.205" height="6.671" transform="matrix(0.052, -0.999, 0.999, 0.052, 0, 0.205)"/></g></g><g transform="translate(104.167 80.618)"><rect class="b" width="15.278" height="46.405" transform="translate(15.278 46.405) rotate(180)"/></g><g transform="translate(45.844 9.906)"><path class="c" d="M680.2,656.586H798.7a6.71,6.71,0,0,0,6.71-6.71V570.23a6.71,6.71,0,0,0-6.71-6.71H680.2a6.71,6.71,0,0,0-6.71,6.71v79.646A6.709,6.709,0,0,0,680.2,656.586Z" transform="translate(-673.49 -563.52)"/></g><g transform="translate(51.011 0)"><rect class="d" width="121.592" height="88.388" transform="translate(121.592 88.388) rotate(180)"/></g><g transform="translate(51.01 0)"><path class="e" d="M720.5,484.046H842.092V473.37H720.5Z" transform="translate(-720.5 -473.37)"/></g><g transform="translate(157.804 90.805)"><ellipse class="f" cx="5.004" cy="4.256" rx="5.004" ry="4.256" transform="translate(0)"/></g><rect class="f" width="68.733" height="3.503" transform="translate(77.44 125.272)"/><path class="g" d="M782.612,507.615H768.17a1.451,1.451,0,0,1-1.451-1.451V505.03a1.451,1.451,0,0,1,1.451-1.451h14.442a1.451,1.451,0,0,1,1.451,1.451v1.134A1.45,1.45,0,0,1,782.612,507.615Z" transform="translate(-710.631 -500.26)"/><rect class="h" width="63.661" height="2.188" transform="translate(59.919 47.873)"/><rect class="h" width="47.217" height="2.188" transform="translate(59.919 51.814)"/><rect class="h" width="29.939" height="2.188" transform="translate(59.919 60.377)"/><rect class="h" width="53.788" height="2.188" transform="translate(59.919 64.319)"/><rect class="h" width="38.273" height="2.188" transform="translate(59.919 73.736)"/><rect class="h" width="46.736" height="2.188" transform="translate(59.919 77.677)"/><rect class="i" width="1.6" height="6.13" transform="translate(56.812 47.873)"/><rect class="i" width="1.6" height="6.13" transform="translate(56.812 60.377)"/><rect class="i" width="1.6" height="6.13" transform="translate(56.812 73.736)"/><g transform="translate(137.788 73.856)"><path class="i" d="M1517.124,1154.239h-5.1a1.835,1.835,0,0,1-1.835-1.835v-5.1a1.836,1.836,0,0,1,1.835-1.835h5.1a1.835,1.835,0,0,1,1.835,1.835v5.1A1.835,1.835,0,0,1,1517.124,1154.239Z" transform="translate(-1510.19 -1145.47)"/><g transform="translate(1.742 2.454)"><path class="j" d="M1528.4,1171.663l-2.216-1.933a.437.437,0,1,1,.575-.658l1.567,1.367,2.235-2.493a.437.437,0,1,1,.651.582Z" transform="translate(-1526.038 -1167.8)"/></g></g><g transform="translate(137.784 60.495)"><path class="i" d="M1516.929,1032.657h-4.78a2,2,0,0,1-2-2v-4.78a2,2,0,0,1,2-2h4.78a2,2,0,0,1,2,2v4.78A2,2,0,0,1,1516.929,1032.657Zm-4.78-8.221a1.444,1.444,0,0,0-1.442,1.442v4.78a1.444,1.444,0,0,0,1.442,1.442h4.78a1.444,1.444,0,0,0,1.442-1.442v-4.78a1.443,1.443,0,0,0-1.442-1.442Z" transform="translate(-1510.15 -1023.88)"/></g><g transform="translate(150.986 47.137)"><path class="i" d="M1637.069,911.1h-4.78a2,2,0,0,1-2-2v-4.78a2,2,0,0,1,2-2h4.78a2,2,0,0,1,2,2v4.78A2,2,0,0,1,1637.069,911.1Zm-4.78-8.221a1.444,1.444,0,0,0-1.442,1.442v4.78a1.443,1.443,0,0,0,1.442,1.442h4.78a1.444,1.444,0,0,0,1.442-1.442v-4.78a1.444,1.444,0,0,0-1.442-1.442Z" transform="translate(-1630.29 -902.32)"/></g><g transform="translate(150.986 73.853)"><path class="i" d="M1637.069,1154.217h-4.78a2,2,0,0,1-2-2v-4.78a2,2,0,0,1,2-2h4.78a2,2,0,0,1,2,2v4.78A2,2,0,0,1,1637.069,1154.217Zm-4.78-8.221a1.444,1.444,0,0,0-1.442,1.442v4.78a1.444,1.444,0,0,0,1.442,1.442h4.78a1.444,1.444,0,0,0,1.442-1.442v-4.78a1.443,1.443,0,0,0-1.442-1.442Z" transform="translate(-1630.29 -1145.44)"/></g><g transform="translate(150.99 60.498)"><g transform="translate(0)"><path class="i" d="M1637.264,1032.679h-5.1a1.835,1.835,0,0,1-1.835-1.835v-5.1a1.835,1.835,0,0,1,1.835-1.835h5.1a1.835,1.835,0,0,1,1.835,1.835v5.1A1.835,1.835,0,0,1,1637.264,1032.679Z" transform="translate(-1630.33 -1023.91)"/></g><g transform="translate(1.74 2.454)"><path class="j" d="M1648.534,1050.1l-2.216-1.933a.437.437,0,1,1,.575-.658l1.567,1.367,2.235-2.493a.437.437,0,1,1,.651.582Z" transform="translate(-1646.168 -1046.24)"/></g></g><g transform="translate(137.788 47.14)"><path class="i" d="M1517.124,911.119h-5.1a1.836,1.836,0,0,1-1.835-1.835v-5.1a1.836,1.836,0,0,1,1.835-1.835h5.1a1.835,1.835,0,0,1,1.835,1.835v5.1A1.835,1.835,0,0,1,1517.124,911.119Z" transform="translate(-1510.19 -902.35)"/><g transform="translate(1.742 2.454)"><path class="j" d="M1528.4,928.543l-2.216-1.933a.437.437,0,1,1,.575-.658l1.567,1.367,2.235-2.493a.437.437,0,1,1,.651.583Z" transform="translate(-1526.038 -924.68)"/></g></g><g transform="translate(183.475 55.643)"><path class="k" d="M1928.041,979.829c2.07-.99,4.129,5.6,4.129,5.6,3.519,4.649,8.435-1.535,7.954,5.414-.842,12.161,14,3.824,7.151,16.521s6.045,7.179,1.79,17.416,1.259,22.447-5.142,17.429c0,0-5.636-12.36-11.449-16.184s3.482-8.361,1.664-13.556c-2.642-7.544-9.006-7.248-4.417-15.355S1921,983.2,1928.041,979.829Z" transform="translate(-1925.943 -979.728)"/><g transform="translate(8.332 12.893)"><path class="d" d="M2013.447,1142c-2.775-1.952-6.022-15.551-6.215-23.649a11.4,11.4,0,0,0-2.408-7.4,6.26,6.26,0,0,1-1.408-5.608c.995-5.524-1.62-7.909-1.646-7.933l.3-.345c.116.1,2.839,2.562,1.8,8.359a5.818,5.818,0,0,0,1.33,5.26,11.933,11.933,0,0,1,2.492,7.657c.208,8.692,3.528,21.532,6.021,23.285Z" transform="translate(-2001.77 -1097.06)"/></g><g transform="translate(17.609 31.6)"><path class="l" d="M2089.627,1294.531a5.888,5.888,0,0,1-1.174-.127,2.562,2.562,0,0,1-2.084-1.677c-.748-2.139.984-5.614,2.391-7.289a10.688,10.688,0,0,0,2.126-6.893c-.042-.668-.111-1.287-.172-1.833-.177-1.578-.3-2.719.373-3.48.6-.672,1.75-.962,3.856-.971a7.637,7.637,0,0,0,6.326-2.775,6.676,6.676,0,0,1,1.541-1.326h0c1.841-1,3.789-1.153,4.635-.351.4.38.741,1.126.076,2.516a9.721,9.721,0,0,1-2.03,2.721c-.852.869-1.415,1.444-1.122,2.589.069.269.148.541.228.813.569,1.947,1.214,4.154-2.117,5.651-.707.318-1.352.571-1.92.793-2.326.913-3.731,1.464-5.315,4.81-.307.647-.578,1.262-.839,1.855C2093.156,1292.389,2092.209,1294.531,2089.627,1294.531Zm13.4-25.971a6.3,6.3,0,0,0-1.429,1.241,8.027,8.027,0,0,1-6.656,2.916c-1.936.009-3.021.262-3.515.818-.542.609-.423,1.664-.26,3.124.061.552.132,1.176.175,1.855a10.965,10.965,0,0,1-2.233,7.217c-1.392,1.658-2.969,4.958-2.31,6.843a2.131,2.131,0,0,0,1.742,1.379c3.138.634,4-1.33,5.441-4.582.264-.6.535-1.213.845-1.867,1.663-3.51,3.214-4.12,5.563-5.041.563-.221,1.2-.471,1.9-.786,2.968-1.334,2.431-3.165,1.865-5.1-.081-.277-.161-.554-.232-.828-.357-1.4.347-2.114,1.24-3.024a9.2,9.2,0,0,0,1.942-2.6c.3-.63.55-1.486.023-1.986-.694-.656-2.456-.475-4.1.422Z" transform="translate(-2086.188 -1267.293)"/></g><g transform="translate(19.465 35.262)"><path class="m" d="M2103.538,1326.845l-.458-.024c.023-.431.6-10.579,4.676-13.549a16.313,16.313,0,0,0,6.552-9.111c.791-2.77,4.816-3.51,4.988-3.541l.08.452c-.039.006-3.914.721-4.626,3.214a16.749,16.749,0,0,1-6.722,9.356C2104.126,1316.486,2103.543,1326.742,2103.538,1326.845Z" transform="translate(-2103.08 -1300.62)"/></g><path class="n" d="M2065.189,1072.908c-2.9-.994-2.294,4.589-3.519,8.719s-13.614,1.8-8.413,12.144-6.578,3.458-3.059,12.483.305,18.678,4.13,16.222,2.148-13.819,6.125-15.17,4.626-2.925.688-6.6,10.318-7.317,6.8-14.729S2068.535,1074.056,2065.189,1072.908Z" transform="translate(-2035.949 -1062.565)"/><g transform="translate(18.355 23.289)"><path class="d" d="M2094.778,1227.851c-.364-1.545-3.475-15.141-.573-16.785,2.558-1.448,2.495-7.082,2.1-12.4-.353-4.71,5.7-6.911,5.953-7l.154.433c-.06.021-5.976,2.176-5.649,6.535.41,5.464.454,11.261-2.327,12.836-2.2,1.248-.175,12.176.793,16.28Z" transform="translate(-2092.979 -1191.66)"/></g><path class="o" d="M2027.421,1476.94l-4.135,15.688h-9.24l-4.135-15.688Z" transform="translate(-2000.683 -1422.302)"/><path class="p" d="M2027.421,1476.94s-9.1,1.709-9.1,15.688h-4.272l-4.135-15.688Z" transform="translate(-2000.683 -1422.302)"/></g><g transform="translate(144.651 46.254)"><g transform="translate(23.769 64.611)"><path class="q" d="M1788.94,1482.781s.394,1.548.448,1.782,2.482-.409,2.482-.409l0-1.894A14.616,14.616,0,0,0,1788.94,1482.781Z" transform="translate(-1788.94 -1482.26)"/></g><g transform="translate(18.754 66.336)"><path class="r" d="M1748.715,1498.342a6.747,6.747,0,0,1-1.392,1.527c-.712.495-3.459,1.135-3.86,1.611-.29.344-.692,1.644,3.716,1.051,3.133-.422,4.678-.315,4.959-.861s-.893-3.709-.893-3.709A6.01,6.01,0,0,1,1748.715,1498.342Z" transform="translate(-1743.3 -1497.96)"/></g><g transform="translate(14.455 17.694)"><g transform="translate(0 1.741)"><g transform="translate(0 0)"><rect class="s" width="1.114" height="90.093" transform="matrix(0.995, -0.098, 0.098, 0.995, 0, 0.109)"/></g></g><g transform="translate(17.94 0)"><g transform="translate(0)"><g transform="translate(0)"><rect class="s" width="1.114" height="90.093" transform="matrix(0.995, -0.098, 0.098, 0.995, 0, 0.109)"/></g></g></g><g transform="translate(0.701 1.569)"><g transform="translate(0 0)"><rect class="s" width="18.025" height="1.114" transform="translate(0 1.743) rotate(-5.549)"/></g><g transform="translate(0.809 8.34)"><g transform="translate(0 0)"><rect class="s" width="18.024" height="1.114" transform="translate(0 1.741) rotate(-5.544)"/></g></g><g transform="translate(1.619 16.682)"><g transform="translate(0 0)"><rect class="s" width="18.025" height="1.114" transform="translate(0 1.741) rotate(-5.544)"/></g></g><g transform="translate(2.426 25.025)"><g transform="translate(0 0)"><g transform="translate(0)"><rect class="s" width="18.025" height="1.114" transform="matrix(0.995, -0.097, 0.097, 0.995, 0, 1.739)"/></g></g></g><g transform="translate(3.234 33.368)"><g transform="translate(0 0)"><rect class="s" width="18.025" height="1.114" transform="matrix(0.995, -0.097, 0.097, 0.995, 0, 1.739)"/></g></g><g transform="translate(4.046 41.71)"><g transform="translate(0 0)"><rect class="s" width="18.025" height="1.114" transform="translate(0 1.741) rotate(-5.544)"/></g></g><g transform="translate(4.858 50.05)"><g transform="translate(0 0)"><rect class="s" width="18.025" height="1.114" transform="translate(0 1.741) rotate(-5.544)"/></g></g><g transform="translate(5.667 58.393)"><g transform="translate(0 0)"><rect class="s" width="18.024" height="1.114" transform="translate(0 1.741) rotate(-5.544)"/></g></g><g transform="translate(6.475 66.736)"><g transform="translate(0 0)"><rect class="s" width="18.024" height="1.114" transform="translate(0 1.741) rotate(-5.544)"/></g></g></g><g transform="translate(7.988 76.645)"><g transform="translate(0 0)"><g transform="translate(0)"><rect class="s" width="18.024" height="1.114" transform="translate(0 1.741) rotate(-5.544)"/></g></g><g transform="translate(0.807 8.341)"><g transform="translate(0 0)"><rect class="s" width="18.025" height="1.114" transform="matrix(0.995, -0.097, 0.097, 0.995, 0, 1.739)"/></g></g></g></g><g transform="translate(17.2 31.289)"><path class="t" d="M1732.736,1180.26s-1.767,6.563-2.233,8.908c-.406,2.044-1.223,7.488-1.339,8.781s5.217,13.821,5.771,16.084l4.858-.78s-5.126-13.038-3.789-15.935c1.989-4.309,2.248-4.179,3.814-7.729s5.153-3.634,6.116-10.22C1745.936,1179.37,1734.041,1178.172,1732.736,1180.26Z" transform="translate(-1729.163 -1179.028)"/></g><g transform="translate(23.668 0.342)"><path class="q" d="M1793.763,897.7s-3.226-1.205-4.713,1.251-1.344,7.372.282,7.977,4.069.288,4.9-1.248a12.3,12.3,0,0,0,1.548-5.243A3.236,3.236,0,0,0,1793.763,897.7Z" transform="translate(-1788.018 -897.408)"/></g><g transform="translate(25.429 6.743)"><path class="q" d="M1804.142,958.622a2.7,2.7,0,0,1-.086,1.263c-.215.417,4.058.427,4.058.427a28.2,28.2,0,0,1,1-4.18C1809.777,954.216,1804.142,958.622,1804.142,958.622Z" transform="translate(-1804.048 -955.649)"/></g><g transform="translate(24.043)"><path class="u" d="M1797.891,901.516s-.294.487-1.5.3-2.673-1.79-3.175-1.966-.508-.471-.508-.471l-.314.459-.534.034s.487-1.433-.247-2.018.762-4.637,4.623-3.288c0,0,2.965.818,2.857,2.5A9.4,9.4,0,0,1,1797.891,901.516Z" transform="translate(-1791.433 -894.291)"/></g><g transform="translate(25.304 3.857)"><path class="q" d="M1803,930c.067-.282.787-1.091,1.063-.225s-.417,2.03-.8,1.93S1802.83,930.72,1803,930Z" transform="translate(-1802.907 -929.388)"/></g><g transform="translate(31.911 12.393)"><path class="v" d="M1868.823,1016.727a1.9,1.9,0,0,1-.848,1.108,1.374,1.374,0,0,1-.736.242l-.191.007h0l-3.353.114s-2.492-8.055,2.183-11.127C1866.023,1007.084,1869.147,1012.844,1868.823,1016.727Z" transform="translate(-1863.03 -1007.07)"/></g><g transform="translate(20.392 66.335)"><path class="r" d="M1765.411,1501.66c-.282.546-1.828.44-4.959.86a14.378,14.378,0,0,1-2.059.153l-.182-1.885a14.147,14.147,0,0,0,2.387-.93,6.722,6.722,0,0,0,1.392-1.527,6.008,6.008,0,0,0,2.53-.381S1765.692,1501.114,1765.411,1501.66Z" transform="translate(-1758.21 -1497.95)"/></g><g transform="translate(25.188 10.423)"><path class="v" d="M1802.187,989.454a9.8,9.8,0,0,1,4.113-.111l.224.208s.45.864-1.246.938S1800.916,990.686,1802.187,989.454Z" transform="translate(-1801.855 -989.146)"/></g><g transform="translate(35.801 71.855)"><path class="q" d="M1898.43,1548.7s.395,1.548.448,1.782,2.482-.409,2.482-.409l0-1.895A14.585,14.585,0,0,0,1898.43,1548.7Z" transform="translate(-1898.43 -1548.18)"/></g><g transform="translate(27.099 31.631)"><path class="t" d="M1826.121,1182.14a51.127,51.127,0,0,1,1.147,7.31c.243,3.379.683,7.085,1.034,10.619.391,3.941,1.506,10.31,1.564,12.418s1.832,11.318,1.832,11.318l-4.538.522s-2.948-16.278-3.645-17.941-4.149-13.526-4.266-14.858S1826.121,1182.14,1826.121,1182.14Z" transform="translate(-1819.247 -1182.14)"/></g><g transform="translate(30.785 73.579)"><path class="r" d="M1858.205,1564.251a6.743,6.743,0,0,1-1.393,1.527c-.712.495-3.459,1.135-3.86,1.611-.29.344-.692,1.644,3.717,1.051,3.132-.422,4.678-.315,4.959-.861s-.893-3.709-.893-3.709A6.008,6.008,0,0,1,1858.205,1564.251Z" transform="translate(-1852.79 -1563.87)"/></g><g transform="translate(17.203 10.732)"><path class="v" d="M1731.843,1021.936c-.387-.055.959-11.577.857-12.3-.069-.482-.058-4.226-.03-6.56l-.421-2.363a10.769,10.769,0,0,0-.925-.585c-.585-.337-1.319-.723-2.134-1.131.095-.558.16-1,.186-1.254a4.719,4.719,0,0,1,2.387-3.637,3.838,3.838,0,0,1,.544-.271c.3-.127.6-.25.881-.368,1.9-.784,4.32-1.519,4.32-1.519h3.884a32.954,32.954,0,0,1,4.718,1.312,3.312,3.312,0,0,1,.636.349l-.527,11.07s0,0,0,.007a.091.091,0,0,1,0,.014c-.237,1.557-.488,3.394-.571,4.683-.034.526.567,3.351.881,5.943l1.1,6.2S1746.988,1024.1,1731.843,1021.936Z" transform="translate(-1729.19 -991.95)"/></g><g transform="translate(0 1.904)"><path class="q" d="M1572.67,914.528a1.682,1.682,0,0,0,.39.359s.3.114.514.209a1.393,1.393,0,0,1,.159.08,3.054,3.054,0,0,0,.859.455c.414.12,2.29.546,2.29.546l.436-1.113.313-.9a19.068,19.068,0,0,0-2.11-2.405.921.921,0,0,0-.109-.039,3.937,3.937,0,0,0-.8-.073c-.066-.012-.728-.087-.87.052a.648.648,0,0,0-.224.591,1.56,1.56,0,0,0-.4.756.965.965,0,0,0-.26.812S1572.541,914.256,1572.67,914.528Z" transform="translate(-1572.639 -911.618)"/></g><g transform="translate(2.858 4.184)"><path class="v" d="M1615.928,947.594a25.619,25.619,0,0,0-2.934-1.627c-3.612-1.808-8.072-5.083-8.921-5.557-1.3-.727-5.423-5.76-5.423-5.76.212-.758,2.166-2.279,2.166-2.279s6.245,5.915,7.61,6.643c1.174.626,6.97,1.258,8.568,1.423l.408.042C1619.068,942.751,1616.86,948.194,1615.928,947.594Z" transform="translate(-1598.65 -932.37)"/></g></g><rect class="w" width="9.368" height="1.154" transform="translate(63.025 40.186)"/><rect class="w" width="13.913" height="1.154" transform="translate(60.752 38.131)"/><path class="x" d="M855.477,656.609a2.419,2.419,0,1,1-2.419-2.419A2.418,2.418,0,0,1,855.477,656.609Z" transform="translate(-785.329 -634.32)"/><path class="x" d="M841.329,712.445v4.6a10.644,10.644,0,0,1-8.769,0v-4.6a4.385,4.385,0,1,1,8.769,0Z" transform="translate(-769.236 -682.27)"/><g transform="translate(56.812 14.214)"><path class="y" d="M784.2,624.513a10.79,10.79,0,0,1-4.5-.971,10.9,10.9,0,1,1,9.006,0A10.791,10.791,0,0,1,784.2,624.513Zm0-21.217a10.322,10.322,0,1,0,10.322,10.321A10.332,10.332,0,0,0,784.2,603.3Z" transform="translate(-773.3 -602.72)"/></g><g transform="translate(84.447 17.955)"><rect class="z" width="0.759" height="17.477"/><g transform="translate(3.488)"><rect class="z" width="0.759" height="17.477"/></g><g transform="translate(6.977)"><rect class="z" width="0.759" height="17.477"/></g><g transform="translate(10.465)"><rect class="z" width="0.759" height="17.477"/></g><g transform="translate(13.954)"><rect class="z" width="0.759" height="17.477"/></g><g transform="translate(17.443)"><rect class="z" width="0.759" height="17.477"/></g><g transform="translate(20.93)"><rect class="z" width="0.759" height="17.477"/></g><g transform="translate(24.419)"><rect class="z" width="0.759" height="17.477"/></g><g transform="translate(27.907)"><rect class="z" width="0.759" height="17.477"/></g><g transform="translate(31.396)"><rect class="z" width="0.759" height="17.477"/></g><g transform="translate(34.885)"><rect class="z" width="0.759" height="17.477"/></g><g transform="translate(38.373)"><rect class="z" width="0.759" height="17.477"/></g></g><g transform="translate(84.447 20.477)"><g transform="translate(0 2.703)"><rect class="z" width="0.759" height="12.253"/></g><g transform="translate(3.488 6.937)"><rect class="z" width="0.759" height="8.017"/></g><g transform="translate(6.977)"><rect class="z" width="0.759" height="14.955"/></g><g transform="translate(10.465 10.601)"><rect class="z" width="0.759" height="4.354"/></g><g transform="translate(13.954 6.216)"><rect class="z" width="0.759" height="8.738"/></g><g transform="translate(17.443 2.943)"><rect class="z" width="0.759" height="12.012"/></g><g transform="translate(20.93 7.208)"><rect class="z" width="0.759" height="7.747"/></g><g transform="translate(24.419 1.832)"><rect class="z" width="0.759" height="13.123"/></g><g transform="translate(27.907 7.748)"><rect class="z" width="0.759" height="7.208"/></g><g transform="translate(31.396 3.424)"><rect class="z" width="0.759" height="11.532"/></g><g transform="translate(34.885 9.19)"><rect class="z" width="0.759" height="5.766"/></g><g transform="translate(38.373 3.424)"><rect class="z" width="0.759" height="11.532"/></g></g><g transform="translate(136.02 16.611)"><path class="z" d="M1513.193,631.053a9.83,9.83,0,1,0-18.512,6.621c.075.208.155.413.242.613a9.831,9.831,0,0,0,18.27-7.234Zm-6.775,10.249a7.359,7.359,0,0,1-9.239-4c-.065-.151-.127-.3-.182-.459a7.37,7.37,0,1,1,9.421,4.458Z" transform="translate(-1494.104 -624.53)"/><g transform="translate(0.449 0.004)"><path class="aa" d="M1500.538,632.2l-2.348-.733a9.845,9.845,0,0,1,9.09-6.9l.074,2.459a7.383,7.383,0,0,0-6.815,5.172Z" transform="translate(-1498.19 -624.57)"/></g><g transform="translate(0 6.903)"><path class="ab" d="M1497.183,693.221l-2.256.982c-.087-.2-.168-.4-.241-.613a9.785,9.785,0,0,1-.129-6.241l2.348.733a7.336,7.336,0,0,0,.1,4.678C1497.056,692.918,1497.117,693.071,1497.183,693.221Z" transform="translate(-1494.108 -687.35)"/></g><g transform="translate(0.818 12.773)"><path class="x" d="M1503.074,744.2a9.82,9.82,0,0,1-1.524-2.447l2.256-.982a7.321,7.321,0,0,0,1.142,1.835Z" transform="translate(-1501.55 -740.77)"/></g></g><g transform="translate(157.826 28.746)"><path class="z" d="M1698.345,735.356a4.067,4.067,0,1,0-3.479,7.351q.124.059.25.109a4.067,4.067,0,0,0,3.229-7.46Zm1.016,4.98a3.045,3.045,0,0,1-3.871,1.534c-.063-.025-.125-.052-.188-.081a3.049,3.049,0,1,1,4.059-1.453Z" transform="translate(-1692.538 -734.964)"/><g transform="translate(0.001 1.279)"><path class="aa" d="M1693.911,750.8l-.9.473a4.07,4.07,0,0,1,.642-4.677l.741.7a3.052,3.052,0,0,0-.481,3.507Z" transform="translate(-1692.545 -746.6)"/></g><g transform="translate(0.465 5.483)"><path class="ab" d="M1699.256,786.282l-.373.947q-.126-.05-.25-.109a4.052,4.052,0,0,1-1.863-1.788l.9-.473a3.035,3.035,0,0,0,1.4,1.341C1699.13,786.229,1699.193,786.257,1699.256,786.282Z" transform="translate(-1696.77 -784.86)"/></g></g><g transform="translate(157.826 16.363)"><g transform="translate(0)"><path class="z" d="M1700.284,628.085a4.066,4.066,0,1,0-7.35-3.479q-.059.124-.109.251a4.066,4.066,0,0,0,7.459,3.229ZM1695.3,629.1a3.046,3.046,0,0,1-1.534-3.871c.025-.063.052-.125.081-.188a3.049,3.049,0,1,1,1.453,4.059Z" transform="translate(-1692.541 -622.278)"/></g><g transform="translate(2.179 0.001)"><path class="z" d="M1712.843,623.651l-.473-.9a4.07,4.07,0,0,1,4.676.642l-.7.741a3.051,3.051,0,0,0-3.505-.481Z" transform="translate(-1712.37 -622.285)"/></g><g transform="translate(0.283 0.466)"><path class="ab" d="M1696.067,629.006l-.947-.372q.05-.125.109-.251a4.052,4.052,0,0,1,1.788-1.863l.473.9a3.035,3.035,0,0,0-1.341,1.4C1696.119,628.879,1696.091,628.942,1696.067,629.006Z" transform="translate(-1695.12 -626.52)"/></g><g transform="translate(0.013 2.578)"><path class="x" d="M1692.66,646.9a4.039,4.039,0,0,1,.27-1.161l.947.373a2.983,2.983,0,0,0-.2.87Z" transform="translate(-1692.66 -645.74)"/></g></g><g transform="translate(153.05 36.528)"><path class="ac" d="M1656.673,808.8h-7.593v-.151h7.443V805.78h.151Z" transform="translate(-1649.08 -805.78)"/></g><g transform="translate(136.469 34.702)"><path class="ac" d="M1508.066,794.006h-9.876v-.15h9.725v-4.7h.151Z" transform="translate(-1498.19 -789.16)"/></g><g transform="translate(136.469 37.827)"><rect class="z" width="6.796" height="0.905"/></g><g transform="translate(153.05 37.827)"><rect class="z" width="3.997" height="0.905"/></g><g transform="translate(39.936 66.947)"><g transform="translate(4.247)"><path class="ad" d="M662.714,1082.613s-2.87-.1-3.786,2.256a6.955,6.955,0,0,0,.036,5.013c.682,2.237.739,3.051.408,4.4-.292,1.2-.562,1.815-.9,2.934s.225.995.275,1.076,11.238,1.115,11.238,1.115-.3-2.424-1.087-2.987-1.567-.677-.967-3.076.98-3.512.644-5.252c-.389-2.015-.634-3.276-2.53-4.6A5.093,5.093,0,0,0,662.714,1082.613Z" transform="translate(-658.365 -1082.593)"/></g><path class="f" d="M648.473,1802.329a26.482,26.482,0,0,0,2.214,2.91s1.413.518,1.555,1.507.118,1.65-1.555,1.7-2.769-.253-3.076-1.266a4.609,4.609,0,0,0-.977-1.7v2.12h-.377s-.094-2.05-.118-2.426-.27-1.826.524-2.468A2.2,2.2,0,0,1,648.473,1802.329Z" transform="translate(-643.189 -1723.188)"/><path class="f" d="M716.938,1781.423a6.792,6.792,0,0,0,.789,1.32c.378.494,1.555,2.521,2.074,2.663s2.12.424,2.261,1.319.212,1.532-1.366,1.6-2.615.165-3.369-.943a8.19,8.19,0,0,0-1.955-1.908v2.889h-.612a26.2,26.2,0,0,0-.447-3.219,3.633,3.633,0,0,1,.871-3.722C716.644,1780.223,716.938,1781.423,716.938,1781.423Z" transform="translate(-703.752 -1704.155)"/><path class="q" d="M630.387,1384.281a16.861,16.861,0,0,0-2.314,5.712c-.541,3.075.1,13.347.077,14.867s-1.437,5.3-1.154,8.162,2.645,16.873,2.645,16.873l1.808-.371s-.177-14.524,0-15.725.532-5.581.6-6.076,4.487-13.485,4.487-15.7S635.192,1380.665,630.387,1384.281Z" transform="translate(-626.163 -1350.384)"/><path class="q" d="M693.769,1395.023s3.275,12.5,3.664,14.229a36.45,36.45,0,0,1,.952,3.895,25.732,25.732,0,0,1-.634,4.445l-5.032,19.789-2.087.328s1.208-12.16,1.267-14.493,1.859-5.658,1.507-6.648-5.689-12.4-5.689-12.4S683.674,1391.394,693.769,1395.023Z" transform="translate(-679.533 -1360.113)"/><path class="q" d="M655.382,1805.681s-1.617.9-2.657-.257a8.19,8.19,0,0,1-1.365-2.282l1.808-.371Z" transform="translate(-647.883 -1723.631)"/><path class="q" d="M725.669,1787.146s-1.413.354-1.955,0-2.384-3.467-2.995-3.654c0,0,.591-1.2,2.087-.327C722.807,1783.165,725.268,1786.628,725.669,1787.146Z" transform="translate(-709.621 -1705.897)"/><path class="ae" d="M638.571,1410.815a52.085,52.085,0,0,1-18.851,3.252s1.188-17.088,2.827-20.768,11.67.371,11.67.371S638.571,1407.732,638.571,1410.815Z" transform="translate(-619.72 -1357.781)"/><g transform="translate(11.418 13.712)"><path class="v" d="M739.581,1221.938s-6.908.594-8.618-.167c-.856-.38-2.015-1.959-3.086-3.691-.181-.295-.362-.594-.536-.891-1.309-2.231-2.367-4.423-2.367-4.423s-3.16-3.976.2-5.4a4.08,4.08,0,0,1,2.117,1.619,15.6,15.6,0,0,1,1.607,3.761c.161.621,2.865,6.083,3.034,6.237s1.869.051,3.179.175c2.137.2,4.392.32,4.392.32Z" transform="translate(-723.629 -1207.37)"/></g><g transform="translate(1.374 12.632)"><path class="ae" d="M646.262,1207.645c-.849,1.967-.048,2.623-.437,4.59a60.162,60.162,0,0,0-.455,8.665c.073,1.092-9.688,2.216-11.947.224a29.331,29.331,0,0,1,2.136-6.894,6.473,6.473,0,0,0-.13-3.161c-.082-.208-.409-1.012-.824-2.029,0,0,0,0,0,0-.432-1.057-.958-2.343-1.4-3.426-.525-1.283-.936-2.283-.936-2.283s-.337-3.165.977-4.186c1.142-.887,4.253-1.2,4.811-1.4a9.534,9.534,0,0,1,3.325-.109,18.188,18.188,0,0,0,2.356.947c.608.121,2.963,3.181,3.377,4.3S647.113,1205.678,646.262,1207.645Z" transform="translate(-632.227 -1197.546)"/></g><g transform="translate(7.354 8.313)"><path class="q" d="M690.648,1160.634a41.81,41.81,0,0,0-.276,4.253s-1.462,1.776-3.529-2.17a6.931,6.931,0,0,0-.141-3.8C686.048,1156.7,690.648,1160.634,690.648,1160.634Z" transform="translate(-686.639 -1158.24)"/></g><path class="q" d="M672.56,1198.583s1.251,3.692,4.682,3.421,1.627-3.118,1.627-3.118a7.525,7.525,0,0,0-1.1-.536c-.241-.046-3.405-.18-3.405-.18Z" transform="translate(-666.754 -1185.47)"/><path class="af" d="M802.2,1242.895h-8.18a.651.651,0,0,1-.651-.651V1230a.651.651,0,0,1,.651-.651h8.18a.651.651,0,0,1,.651.651v12.244A.651.651,0,0,1,802.2,1242.895Z" transform="translate(-774.288 -1213.223)"/><rect class="d" width="8.192" height="11.702" transform="translate(19.727 17.049)"/><path class="q" d="M767.7,1319.167a.95.95,0,0,0,.513-.147c.352-.265.478-.919,1.1-.87s.909,1.995.753,2.363-1.018.553-2.291.3S767.7,1319.167,767.7,1319.167Z" transform="translate(-750.979 -1292.262)"/><path class="q" d="M782.655,1312.483a19.324,19.324,0,0,1,1.922-.526,4.323,4.323,0,0,1,2.088-.1c.118.175-.88.325-1.766.577-.815.232-.621.316-.621.316s-.054-.027.877-.114c1-.093,2.031-.091,2.133.109.049.1.015.162-.346.255.216-.01.247.046.256.133.043.451-1.416.81-2,.952.446-.107.782-.14.622.163-.184.345-2.267.764-3,.981C782.022,1315.463,782.655,1312.483,782.655,1312.483Z" transform="translate(-764.539 -1286.583)"/><g transform="translate(27.465 18.652)"><path class="q" d="M869.674,1252.408s1.347-.313,1.781.335a2.528,2.528,0,0,1,.342,1.871c-.108.387-.457,1.381-.913,1.177C869.42,1255.135,869.674,1252.408,869.674,1252.408Z" transform="translate(-869.657 -1252.332)"/></g><g transform="translate(28.09 17.969)"><path class="q" d="M876.072,1246.889s-.189-.911-.554-.755-.035.756-.035.756Z" transform="translate(-875.347 -1246.116)"/></g><g transform="translate(27.482 18.501)"><path class="q" d="M869.81,1251.181s.022-.521.964.015S869.81,1251.181,869.81,1251.181Z" transform="translate(-869.81 -1250.954)"/></g><path class="r" d="M757.42,1272.472a23.021,23.021,0,0,0,1.071-2.992,17.973,17.973,0,0,1-.535,3.885c-.181-.294-.362-.594-.536-.891Z" transform="translate(-742.288 -1248.943)"/><path class="ag" d="M767.17,1269.106c0-.031,0-.046,0-.046A.214.214,0,0,1,767.17,1269.106Z" transform="translate(-750.967 -1248.57)"/><path class="v" d="M684.569,1266.433l-4.279-7.533s1.495,7.515,2.626,7.768A1.855,1.855,0,0,0,684.569,1266.433Z" transform="translate(-673.634 -1239.526)"/><g transform="translate(1.078 14.043)"><path class="ah" d="M631.023,1210.438a3.045,3.045,0,0,0-1.345,3.667,11.087,11.087,0,0,0,2.088,4.394c.638.934,1.941,3.448,2.1,3.731s1.729,4.387,3.168,4.854,8.575-1.8,8.735-1.554a13.013,13.013,0,0,0-.009-2.5s-3.312.244-4.043.195c-1.187-.08-3.091.4-3.549-.623-.539-1.208-2.467-5.177-2.67-5.831S632.927,1209.766,631.023,1210.438Z" transform="translate(-629.529 -1210.388)"/></g><g transform="translate(6.038 0.995)"><path class="ai" d="M679.459,1092.178s3.166,2.067,2.137,7.062-4.767,2.25-5.174,1.966a12.155,12.155,0,0,1-1.71-4.775C674.667,1095.148,674,1090,679.459,1092.178Z" transform="translate(-674.664 -1091.647)"/></g><g transform="translate(5.756 0.53)"><path class="ad" d="M676.963,1089.412c-.331-.1-1.445,2.056-2.044,2.588a5.548,5.548,0,0,0-1.811,3.327c-.108,1.462-1.342-3.194-.914-4.922s1-4.261,4.855-2.252a4.95,4.95,0,0,1,2.86,5.6S678.631,1089.9,676.963,1089.412Z" transform="translate(-672.104 -1087.414)"/></g><g transform="translate(6.554 5.291)"><path class="ai" d="M680.746,1131.425c-.1-.591-1.407-1.091-1.388-.2s.74,1.913,1.147,1.848S680.841,1131.971,680.746,1131.425Z" transform="translate(-679.358 -1130.739)"/></g><path class="aj" d="M693.44,1180.52a4.094,4.094,0,0,0,3.081,1.857c.052-.565.123-1.257.123-1.257A3.708,3.708,0,0,1,693.44,1180.52Z" transform="translate(-685.339 -1169.759)"/><g transform="translate(20.658 18.179)"><rect class="h" width="2.876" height="0.605" transform="translate(0 0.258)"/><g transform="translate(3.402)"><g transform="translate(0.765 1.057)"><path class="i" d="M846.061,1258.479l-.408-.667a.116.116,0,1,1,.2-.121l.288.471.766-.453a.116.116,0,0,1,.119.2Z" transform="translate(-845.636 -1257.636)"/></g><path class="i" d="M840.134,1250.948a1.464,1.464,0,1,1,1.464-1.464A1.465,1.465,0,0,1,840.134,1250.948Zm0-2.72a1.255,1.255,0,1,0,1.255,1.255A1.256,1.256,0,0,0,840.134,1248.228Z" transform="translate(-838.67 -1248.02)"/></g><g transform="translate(3.402 3.698)"><g transform="translate(0.765 1.057)"><path class="i" d="M846.061,1292.129l-.408-.667a.116.116,0,0,1,.2-.121l.288.471.766-.453a.116.116,0,0,1,.119.2Z" transform="translate(-845.636 -1291.286)"/></g><path class="i" d="M840.134,1284.6a1.464,1.464,0,1,1,1.464-1.465A1.466,1.466,0,0,1,840.134,1284.6Zm0-2.72a1.255,1.255,0,1,0,1.255,1.255A1.256,1.256,0,0,0,840.134,1281.879Z" transform="translate(-838.67 -1281.67)"/></g><rect class="h" width="2.876" height="0.605" transform="translate(0 1.463)"/><rect class="h" width="2.876" height="0.605" transform="translate(0 4.21)"/><rect class="h" width="2.876" height="0.605" transform="translate(0 5.414)"/></g></g><g transform="translate(64.427 66.814)"><path class="q" d="M848.631,1384.54a7.771,7.771,0,0,1-1.621.418,4.029,4.029,0,0,0-1.986,1.125,31.136,31.136,0,0,0-2.429,2.9c-.037.292.545.194.741-.036s2.055-2.074,2.055-2.074a20.369,20.369,0,0,0-2.073,2.595c.013.273.328.505.712.265a.482.482,0,0,0,.85.085l1.086-1.085s-.459.661.144.471c.321-.1,1.4-1.468,1.7-1.671a16.146,16.146,0,0,0,1.452-1.954Z" transform="translate(-842.594 -1351.227)"/><path class="ak" d="M905.8,1793.92a7.54,7.54,0,0,1-1.275,1.9c-.481.312-3.174,2.933-3.726,3.174s-2.332.577-2.308,1.419,4.592.577,5.481.265,2.38-2.332,2.981-2.307.385,2.476.385,2.476h.649a18.583,18.583,0,0,0,.793-3.51,33.044,33.044,0,0,0-.529-3.414Z" transform="translate(-892.346 -1715.621)"/><path class="ak" d="M1015.822,1784.95a5.549,5.549,0,0,1-.923,2.12,34.609,34.609,0,0,1-3.269,3.116c-.545.249-1.592.424-1.917.823s-.131,1.57,1.917,1.446,2.715-.105,3.2-.518a11.394,11.394,0,0,1,2.524-1.87v2.263h.562s.991-2.974.636-4.226a12.551,12.551,0,0,1-.336-2.955Z" transform="translate(-991.237 -1707.637)"/><path class="q" d="M1058.92,1159.178a6.867,6.867,0,0,1,.208,4.263s3.424-.217,3.554-.606-.137-3.992.333-5.057S1058.92,1159.178,1058.92,1159.178Z" transform="translate(-1035.148 -1149.146)"/><g transform="translate(29.406 41.432)"><path class="q" d="M1110.762,1459.273a2.646,2.646,0,0,0-.168.912,4.354,4.354,0,0,1-.211,1.08,10.082,10.082,0,0,0-.18,1.763,7.527,7.527,0,0,1,.409,1.066c0,.248-.049.755.168.74s.39-.457.39-.457a.308.308,0,0,0,.212.271.535.535,0,0,0,.536-.1s.17.216.337.214a.68.68,0,0,0,.518-.188.625.625,0,0,0,.425.045.57.57,0,0,0,.4-.38s.412,0,.5-.219a1.915,1.915,0,0,0,.047-.594,6.609,6.609,0,0,0-.99-2.732,2.937,2.937,0,0,1-.352-2.269Z" transform="translate(-1110.197 -1458.43)"/></g><g transform="translate(28.464 46.129)"><path class="al" d="M1102.052,1505.758l-.424-2.927a.865.865,0,0,1,.731-.979l4.642-.674a.865.865,0,0,1,.979.731l.424,2.927a.865.865,0,0,1-.731.979l-4.642.674A.865.865,0,0,1,1102.052,1505.758Zm.39-3.332a.285.285,0,0,0-.241.322l.424,2.927a.285.285,0,0,0,.322.241l4.642-.674a.286.286,0,0,0,.241-.322l-.424-2.927a.285.285,0,0,0-.322-.241Z" transform="translate(-1101.619 -1501.168)"/></g><g transform="translate(23.567 48.38)"><rect class="am" width="17.315" height="12.608" transform="matrix(-0.99, 0.144, -0.144, -0.99, 18.944, 12.476)"/></g><g transform="translate(30.187 44.945)"><path class="an" d="M1117.414,1492.693s-.274-1.385.035-1.758.435.12.435.12-.134-.486.247-.637.5.435.5.435a.408.408,0,0,1,.424-.407c.425-.01.411.5.411.5s.312-.564.646-.159a2.115,2.115,0,0,1,.306,1.691s-.086.236-.5.219a.566.566,0,0,1-.823.335s-.543.467-.855-.026A.494.494,0,0,1,1117.414,1492.693Z" transform="translate(-1117.302 -1490.392)"/></g><path class="ad" d="M1010.406,1201.755s-2.023.7-2.937.894-2.827,1.077-2.671,4.4a67.6,67.6,0,0,0,.934,7.625,29.267,29.267,0,0,1-.259,6.822,26.328,26.328,0,0,0,10.557,0,22.613,22.613,0,0,1-.986-3.787c.026-.778,3.371-7.184,3.527-8.2s.83-5.473-.7-6.458-2.776-.856-3.424-1.3S1011.352,1201.438,1010.406,1201.755Z" transform="translate(-986.965 -1188.274)"/><path class="aa" d="M907.067,1211.47s-2.233-.062-3.815,3.441-1.971,5.55-2.334,6.044a16.729,16.729,0,0,1-2.879,3.346c-1.245.934-6.429,6.193-6.429,6.193l1.423,1.821s7.47-5.291,8.248-6.2,5.5-7.781,5.787-8.819S909.534,1212.542,907.067,1211.47Z" transform="translate(-886.224 -1197.175)"/><path class="aa" d="M1112.753,1235.125c.014,1.4-1.441,10.958-1.441,10.958l-2.748.117s.881-9.48,1.192-11.659a11,11,0,0,0-.141-2.731h0c-.1-.691-.229-1.42-.366-2.115-.379-1.921-.817-3.6-.817-3.6s-2.477-8.161,1.329-7.562a9.265,9.265,0,0,1,1.745,4.022,47.636,47.636,0,0,1,.778,7.548C1112.206,1231.545,1112.743,1234.1,1112.753,1235.125Z" transform="translate(-1078.515 -1203.437)"/><path class="v" d="M968.151,1370.123a23.294,23.294,0,0,0-.959,2.612c-.078.526-2.843,7.41-3.035,9.423-.194,2.036-.778,7.47-.986,8.248s.467,4.254.57,5.032a157.956,157.956,0,0,1-.881,19.765,4.921,4.921,0,0,0,3.839,0s2.749-9.8,2.593-15.459-.873-8.041,0-10.323,6.013-9.13,6.532-9.856,3.768-4.74.691-9.088S968.151,1370.123,968.151,1370.123Z" transform="translate(-949.644 -1336.903)"/><path class="v" d="M1034.634,1386.4c-.274,1.816.014,4.2.585,10.843a63,63,0,0,1-1,14.68,7.965,7.965,0,0,1-4.241,0c.052-.467,0-16.186,0-17.586s-.4-2.99-.505-4.6a32.671,32.671,0,0,0-1.154-5.178c-.172-.618-.349-1.238-.522-1.841h0c-.1-.337-.192-.668-.285-.989-.808-2.8-1.895-13.619-1.895-13.619s6.021-4.849,8.952-.283,1.426,7.885,1.323,8.455S1034.908,1384.583,1034.634,1386.4Z" transform="translate(-1005.508 -1334.608)"/><path class="aa" d="M994.251,1237.981s.406,8.168-1.541,12.876a28.252,28.252,0,0,0,14.706,0s-1.776-5.855-1.634-6.75,3.244-11.218,2.29-13.646S995.207,1230.319,994.251,1237.981Z" transform="translate(-976.214 -1213.254)"/><path class="q" d="M1036.557,1086.269c-1.445-.164-5.188.13-4.9,5.758s2.334,5.291,4.384,4.694,4.487-4.954,4.487-6.121S1040.681,1086.736,1036.557,1086.269Z" transform="translate(-1010.865 -1085.705)"/><path class="ao" d="M1033.669,1085.134a8.624,8.624,0,0,0,3.265,2.574,6.4,6.4,0,0,0,3.459,2.827s4.689-4.483.746-7.856S1033.642,1083.414,1033.669,1085.134Z" transform="translate(-1012.672 -1081.389)"/><path class="q" d="M1060.034,1127.364a.707.707,0,0,1,1.264-.233c.526.7-.434,2.334-.8,2.334S1059.828,1128.531,1060.034,1127.364Z" transform="translate(-1036.081 -1121.82)"/><path class="ao" d="M1090.6,1098c.118-.178,3.671-1.779,4.41,1.567s-2.862,7.236-3.493,8.91,0,5.642,0,5.642a13.173,13.173,0,0,1-2.537-4.127C1088.262,1107.7,1088.021,1101.921,1090.6,1098Z" transform="translate(-1061.475 -1095.697)"/><path class="ak" d="M1049.781,1463.91c-.046.1-3.046,6.762-3.819,7.916-.172-.618-.349-1.239-.522-1.841h0S1049.679,1464.057,1049.781,1463.91Z" transform="translate(-1023.15 -1421.876)"/><path class="ak" d="M1123.283,1277.74a48.4,48.4,0,0,1-.627,6.8c-.1-.691-.229-1.42-.366-2.115C1122.312,1282.327,1123.179,1278.4,1123.283,1277.74Z" transform="translate(-1091.555 -1256.163)"/></g><g transform="translate(0 67.944)"><g transform="translate(16.43 79.628)"><path class="ap" d="M408.934,1816.546a4.289,4.289,0,0,0,2.178,1.65c1.271.293,2.524.759,2.533,1.561s-3.676,1.281-5.131.471c-2.171-1.208-2.392-.843-2.633-1.447s.289-2.216.274-2.409C406.135,1816.135,408.934,1816.546,408.934,1816.546Z" transform="translate(-405.819 -1816.298)"/></g><g transform="translate(16.764 78.812)"><path class="aq" d="M411.493,1809.264a5.868,5.868,0,0,1,.141.669c-.024.014-2.865.353-2.779-.174.069-.426.169-.89.169-.89Z" transform="translate(-408.853 -1808.87)"/></g><g transform="translate(6.883 79.45)"><path class="ap" d="M322.042,1815.009a4,4,0,0,0,1.752,1.74c1.18.472,2.127,1.015,2.107,1.8s-2.887,1.574-4.97.074c-1.316-.948-1.734-.953-1.945-1.55s.367-2.148.359-2.335C319.332,1814.5,322.042,1815.009,322.042,1815.009Z" transform="translate(-318.938 -1814.673)"/></g><g transform="translate(7.285 78.608)"><path class="aq" d="M325.331,1807.514a6.432,6.432,0,0,1-.032.674c-.024.012-2.77.239-2.7-.276a4.208,4.208,0,0,1,.266-.9Z" transform="translate(-322.598 -1807.01)"/></g><g transform="translate(6.222 36.473)"><path class="ar" d="M326.786,1426.594s2.551,11.25,3.133,14.677a32.687,32.687,0,0,1,.654,8.059c-.295,2.606-3.985,16.116-3.83,16.881s-3.862.122-3.862.122,2.807-15.07,2.246-17.874c-.415-2.077-4.053-15.877-4.611-15.169s-1.249,13.024-1.661,15.068-1.68,18.2-1.68,18.2-2.834.419-3.591-.223c0,0-.345-13.793-.081-17.626.1-1.461-1.712-17.514.612-23.978C315.341,1421.315,326.786,1426.594,326.786,1426.594Z" transform="translate(-312.924 -1423.579)"/></g><g transform="translate(0 13.342)"><path class="as" d="M287.485,1229c-1.818-.255-7.537,2.278-8.056,2.087-.357-.131-1.2-2.864-1.8-4.932-.355-1.223-.625-2.214-.663-2.3l0,0a12.181,12.181,0,0,1-.02,2.219c-.008.079-.044.1-.053.182a.623.623,0,0,1-.023.108,13.049,13.049,0,0,0-.3,1.348,8.559,8.559,0,0,0-.21,2.649v0a.167.167,0,0,1,0,.023c0,.023,0,.045,0,.067s0,.019,0,.028c-.051,1.771.071,3.681.122,4.7a3.7,3.7,0,0,1-.453,2.3h0l-.548-.077-.4-.056h0l-.529-.075-2.074-.291-.752-.105-.178-.025-1.314-.185-3.7-.522-.407-.057-.167-.023-1.4-.2-.632-.088h0s-.536-3.8-.578-5.859a37.292,37.292,0,0,0-1.213-6.336l0-.013a.092.092,0,0,0,0-.016l-.008-.027,0-.013a0,0,0,0,0,0,0s0,0,0,0a.031.031,0,0,1,0-.007s-3.024,3.177-3.611,4.563c-.179.421-.726,1.565-1.422,2.957a8.4,8.4,0,0,1-.775-1.7c0-.02,0-.041,0-.061a74.819,74.819,0,0,1,2.614-10.559,20.193,20.193,0,0,1,1.882-3.375,26.677,26.677,0,0,1,3.276-1.467l.132-.052.372-.146.179-.069.1-.036.077-.03h0a10.621,10.621,0,0,1,1.3-.444c.018,0,.046,0,.085,0s.1,0,.171.008c.837.05,3.336.284,4.141.359l.251.024h0l.959.439h0l.054.024c.348.16.752.372,1.178.606.836.458,1.759.993,2.525,1.358s1.779.855,1.867.925l3.8,10.971,6.6-1.207Z" transform="translate(-256.3 -1213.082)"/></g><g transform="translate(7.407 36.04)"><path class="at" d="M336.026,1421.339a3.428,3.428,0,0,1,.359,1.745s-11.461-1.337-12.673-1.864c0,0-.047-1.556.21-1.583C324.2,1419.607,336.026,1421.339,336.026,1421.339Z" transform="translate(-323.709 -1419.637)"/></g><g transform="translate(9.95 8.849)"><path class="au" d="M346.85,1176.3c.035,1.8,3.519,2.782,3.519,2.782s1.457-1.826,1.109-2c-.136-.069-.192-.342-.209-.647a6.466,6.466,0,0,1,.02-.815c.01-.127.02-.209.02-.209s-.5-.525-1.131-1.151c-1.107-1.093-2.627-2.5-2.63-1.937a.51.51,0,0,0,.013.106C347.828,1173.684,346.85,1176.3,346.85,1176.3Z" transform="translate(-346.85 -1172.197)"/></g><g transform="translate(9.438 36.251)"><path class="ap" d="M342.991,1421.625s-.251,1.578-.271,1.989l-.53-.106s.146-1.669.232-1.948Z" transform="translate(-342.19 -1421.56)"/></g><g transform="translate(18.235 37.483)"><path class="ap" d="M422.774,1432.845s.2,1.434.206,1.976l-.56-.072s-.115-1.79-.179-1.978Z" transform="translate(-422.24 -1432.77)"/></g><g transform="translate(11.292 10.318)"><path class="av" d="M359.06,1185.57h0c.008.011.155.232.407.55a7.3,7.3,0,0,0,2.669,2.221,6.5,6.5,0,0,1,.02-.815,1.861,1.861,0,0,0,.346-.042,10.794,10.794,0,0,0-.757-1.109l-.7-.209Z" transform="translate(-359.06 -1185.57)"/></g><g transform="translate(9.438 2.954)"><path class="au" d="M343.373,1124.595c.3.655.588,1.131.668,1.319h0a2.319,2.319,0,0,0,.407.548,4.013,4.013,0,0,0,2.69,1.406,1.871,1.871,0,0,0,.346-.042,1.646,1.646,0,0,0,1.2-.829,9.422,9.422,0,0,0,.6-7.733s-5.941-1.68-6.87.109C341.759,1120.628,342.664,1123.055,343.373,1124.595Z" transform="translate(-342.187 -1118.549)"/></g><g transform="translate(8.549)"><path class="w" d="M342.078,1095.341s.552-.031.688-1.077-.137-1.32-.137-1.32a24.663,24.663,0,0,0-3.333-1.16c-.881-.133-3.046-.262-3.554.319,0,0-1.233-.287-1.569,1.761-.533,3.248,1.816,6.4,1.816,6.4s-.02-2.122.448-2.4.871.388.871.388l.957.171s-1.454-3.14.29-3.256S341.08,1095.523,342.078,1095.341Z" transform="translate(-334.094 -1091.671)"/></g><g transform="translate(10.063 4.838)"><path class="au" d="M349.544,1136.594c-.091-.935-1.781-1.292-1.668-.312s.946,1.922,1.331,1.888S349.613,1137.308,349.544,1136.594Z" transform="translate(-347.871 -1135.699)"/></g><g transform="translate(0.001 13.788)"><path class="aw" d="M257.084,1234.633c.736,1.405,1.9,3.473,3.046,5.477-.152.282-.3.562-.44.837a16.54,16.54,0,0,0-.868,1.938c-.262.733-.625,2.609.07,2.957l3.666,2.024s.025-.071.075-.2c.122-.329.385-1.033.749-1.946.012-.03.048-.116.1-.245.073-.172.178-.418.3-.7.054-.125.11-.258.169-.395.066-.156.135-.317.2-.476.1-.233.2-.464.291-.677l.445-1.035.037-.08q.18-.387.366-.775c.192-.4.391-.8.593-1.187.02-.04.041-.079.062-.119.036-.068.073-.137.109-.2.023-.042.045-.083.068-.124,0-.009.01-.019.015-.027s.019-.033.028-.049c1.06-1.934,2.254-3.551,2.635-5.921q.054-.343.1-.682c.055-.377.106-.748.153-1.112.018-.137.034-.274.051-.409.191-1.581.3-2.991.4-3.974.287-3.058-1.587-6.37-3.025-8.415a22.531,22.531,0,0,0-1.537-1.965.051.051,0,0,1-.008-.008l-.077.03-.1.036-.179.069-.373.146-.132.052c-1.392.546-4.676,1.517-5.044,1.781a26.927,26.927,0,0,0-.89,3.147,53,53,0,0,0-1.838,10.471c0,.022,0,.043,0,.062A8.365,8.365,0,0,0,257.084,1234.633Zm5.571-.683a6.329,6.329,0,0,1-.563,2.3l-.026.063c-.235-.5-.456-.981-.655-1.426,0,0,0,0,0,0a11.365,11.365,0,0,1-.941-2.55c-.135-2.422,1.649-5.21,1.649-5.21a.008.008,0,0,0,0,0s0,0,0,0l0,.013c0,.009.005.018.008.028a.083.083,0,0,1,0,.016l0,.013A58.609,58.609,0,0,1,262.655,1233.95Z" transform="translate(-256.31 -1217.14)"/></g><g transform="translate(15.564 14.197)"><path class="aw" d="M415.988,1232.215l-8.3,1.808-3.957-10.349c-.088-.069-1.222-.68-1.974-1.037-.782-.373-1.771-.832-2.649-1.238l-1.148-.529-.027.022a48.971,48.971,0,0,1,1.124,5.7h0c.022.137.043.276.065.419,0,.016,0,.033.008.049.014.094.029.189.043.287,0,.011,0,.023.005.034.01.065.02.131.029.2.024.16.047.325.071.492.282,1.982.679,5.356,1.06,8.762h0c.3,2.685.988,5.439,1.207,7.5v0a13.984,13.984,0,0,0,.286,1.545c.015.068.032.137.048.208.614,2.594,1.807,6.268,1.807,6.268l.347-.321,1.029-.949a.833.833,0,0,0,.231-.861,71.494,71.494,0,0,1-2.865-12.933v0a15.241,15.241,0,0,1,.553-4.079.318.318,0,0,1,.012.034c.2.568.431,1.185.658,1.786h0a11.593,11.593,0,0,0,1.5,3.2c.58.213,11.512-2.776,11.588-3.2Z" transform="translate(-397.93 -1220.87)"/></g><g transform="translate(7.908 13.787)"><path class="ax" d="M329.95,1221.594l1.694.956-.724.739,1.927,10.408c.393-2.44.571-4.756.705-6.177.443-4.729-4.276-10.062-4.569-10.389-.226.086-.471.181-.724.281Z" transform="translate(-328.26 -1217.13)"/></g><g transform="translate(15.538 14.173)"><path class="ax" d="M397.7,1220.65a54.915,54.915,0,0,1,1.371,7.229c.282,1.982.68,5.357,1.062,8.762l.394-9.747-.808-.875.718-.9-1.535-3.92c-.42-.193-.814-.376-1.148-.529Z" transform="translate(-397.7 -1220.65)"/></g><g transform="translate(8.546 12.955)"><path class="ay" d="M334.07,1210.413l1.4-.853s.04.77,3.519,2.782l-.988,2.782Z" transform="translate(-334.07 -1209.56)"/></g><g transform="translate(13.469 13.343)"><path class="ay" d="M379.8,1213.09a6.55,6.55,0,0,1-.925,2.395L380.8,1218l.141-4.077Z" transform="translate(-378.87 -1213.09)"/></g><g transform="translate(13.195 15.737)"><path class="az" d="M376.644,1234.88a6.572,6.572,0,0,0-.24,1.913,1.825,1.825,0,0,0,1.412-.075A6.525,6.525,0,0,0,376.644,1234.88Z" transform="translate(-376.376 -1234.88)"/></g><g transform="translate(15.217 32.946)"><path class="ba" d="M394.958,1395.83a28.323,28.323,0,0,0,0-4.349l-.179.011a28.8,28.8,0,0,1,0,4.3Z" transform="translate(-394.78 -1391.48)"/></g><g transform="translate(13.894 36.808)"><path class="bb" d="M382.778,1426.63s1.687.2,2.244.341l-.074,1.89-2.209-.235Z" transform="translate(-382.74 -1426.63)"/></g><g transform="translate(13.366 17.23)"><path class="az" d="M378.866,1248.68a26.527,26.527,0,0,1,1.574,10.067,45.036,45.036,0,0,1-.84,7.511l-1.159,1.455-.511-1.788a43.863,43.863,0,0,0,.552-13.867c-.182-1.24-.453-3.588-.453-3.588Z" transform="translate(-377.93 -1248.47)"/></g><g transform="translate(6.817 39.866)"><path class="au" d="M320.168,1454.467s.4.807.808.942a3.491,3.491,0,0,1,.992.79l-2.842,1.5a7.764,7.764,0,0,1-.79-2.422C318.3,1454.333,320.168,1454.467,320.168,1454.467Z" transform="translate(-318.336 -1454.46)"/></g><g transform="translate(6.649 39.949)"><path class="as" d="M319.08,1455.21l.188.378a13.024,13.024,0,0,1-2.291,1.4l-.167-.5Z" transform="translate(-316.81 -1455.21)"/></g><g transform="translate(2.781 30.863)"><path class="aw" d="M287.936,1381.632a13.84,13.84,0,0,1-2.492,1.634l-3.834-6.9,1.987-3.841S287.846,1380.96,287.936,1381.632Z" transform="translate(-281.61 -1372.53)"/></g><g transform="translate(20.118 20.962)"><path class="ar" d="M439.887,1288.043c.2.568.431,1.185.658,1.786a19.247,19.247,0,0,0,.052-1.946,11.935,11.935,0,0,0-1.216-5.453,12.138,12.138,0,0,1,.441,3.17c.063,1.276.054,2.409.054,2.409h0Z" transform="translate(-439.38 -1282.43)"/></g><g transform="translate(3.381 36.758)"><path class="ar" d="M287.07,1427.008l3.069,3.706-2.629-4.544C287.359,1426.451,287.212,1426.732,287.07,1427.008Z" transform="translate(-287.07 -1426.17)"/></g><g transform="translate(24.616 18.136)"><path class="bc" d="M481.36,1271.522h7.086a1.052,1.052,0,0,0,1.022-.8l3.078-12.708a1.052,1.052,0,0,0-1.023-1.3h-7.086a1.052,1.052,0,0,0-1.022.8l-3.078,12.707A1.052,1.052,0,0,0,481.36,1271.522Z" transform="translate(-480.307 -1256.71)"/></g><g transform="translate(31.999 24.896)"><path class="au" d="M549.829,1322.748c-.346-.321-1.015-.508-1.588-.89a.449.449,0,0,1-.094-.777c-.588-.2-.525-.47-.449-.654.1-.247.744-.177.744-.177a6.4,6.4,0,0,1-.813-.232c-.237-.105-.157-.519.208-.648a6.509,6.509,0,0,1,1.85.235s-.242-.119-.975-.487-.893-.7-.462-.863c.3-.112.89.122,2.024.883.853.574.783.648.783.648S550.243,1323.131,549.829,1322.748Z" transform="translate(-547.493 -1318.229)"/></g></g></g></g></svg>