<svg width="291" height="195" viewBox="0 0 291 195" fill="none" xmlns="http://www.w3.org/2000/svg">
<path d="M234.715 73.6102C231.063 55.0425 221.758 38.074 208.089 25.0514C194.42 12.0288 177.061 3.59571 158.414 0.918351C139.766 -1.75901 120.751 1.45171 103.999 10.1064C87.2471 18.7612 73.5853 32.4323 64.9033 49.2289C46.394 51.2469 29.3591 60.3181 17.3054 74.5752C5.25173 88.8323 -0.90333 107.19 0.107364 125.869C1.11806 144.549 9.21758 162.128 22.7385 174.988C36.2594 187.848 54.1727 195.01 72.7906 195H230.459C246.142 195.015 261.218 188.908 272.506 177.968C283.795 167.027 290.412 152.109 290.963 136.361C291.513 120.612 285.954 105.264 275.458 93.5546C264.962 81.8453 250.35 74.6902 234.704 73.599L234.715 73.6102ZM169.796 109.688V158.439H121.288V109.688H84.8897L145.553 48.7463L206.205 109.688H169.796Z" fill="#195297"/>
</svg>
