<?xml version="1.0" encoding="utf-8"?>
<!-- Generator: Adobe Illustrator 24.0.1, SVG Export Plug-In . SVG Version: 6.00 Build 0)  -->
<svg version="1.1" id="Camada_1" xmlns="http://www.w3.org/2000/svg" xmlns:xlink="http://www.w3.org/1999/xlink" x="0px" y="0px"
	 viewBox="0 0 35 35" style="enable-background:new 0 0 35 35;" xml:space="preserve">
<style type="text/css">
	.st0{fill-rule:evenodd;clip-rule:evenodd;fill:#9B9B9B;}
</style>
<title>clock-icon@1x</title>
<desc>Created with Sketch.</desc>
<g>
	<g transform="translate(-806.000000, -2730.000000)">
		<g transform="translate(-14.000000, -75.000000)">
			<g transform="translate(307.000000, 2555.000000)">
				<g transform="translate(0.000000, 237.000000)">
					<g transform="translate(513.000000, 13.000000)">
						<path class="st0" d="M17.5,31.9c-7.9,0-14.4-6.4-14.4-14.4c0-7.9,6.4-14.4,14.4-14.4s14.4,6.4,14.4,14.4
							C31.9,25.4,25.4,31.9,17.5,31.9 M17.5,0.2c9.6,0,17.3,7.7,17.3,17.3c0,9.6-7.7,17.3-17.3,17.3S0.2,27.1,0.2,17.5
							C0.2,7.9,7.9,0.2,17.5,0.2z M17.5,6C16.7,6,16,6.7,16,7.5v10c0,0,0,0,0,0c0,0.4,0.1,0.8,0.4,1.1l7.1,7.1
							c0.3,0.3,0.7,0.4,1,0.4c0.4,0,0.7-0.1,1-0.4c0.6-0.6,0.6-1.5,0-2.1L19,16.9V7.5C19,6.7,18.3,6,17.5,6z"/>
					</g>
				</g>
			</g>
		</g>
	</g>
</g>
</svg>
